<svg width="219" height="136" viewBox="0 0 219 136" fill="none" xmlns="http://www.w3.org/2000/svg">
<g clip-path="url(#clip0_2998:155)">
<path d="M218.06 33.9C191.74 -2.94998 150.75 0.0600258 150.75 0.0600258C156.97 15.06 156.85 26.3 153.75 34.62C148.89 35.4 143.08 36.62 136.75 37.97C136.827 35.4612 136.673 32.9507 136.29 30.47C136.129 29.4428 135.629 28.499 134.87 27.7887C134.111 27.0784 133.136 26.6423 132.1 26.55C131.064 26.4573 130.026 26.7141 129.152 27.2795C128.279 27.845 127.62 28.6865 127.28 29.67C126.172 33.0416 124.78 36.3133 123.12 39.45C120.015 38.5614 116.823 38.0082 113.6 37.8H110.5C107.277 38.0091 104.085 38.5623 100.98 39.45C99.3197 36.3133 97.9281 33.0416 96.82 29.67C96.4803 28.6865 95.8211 27.845 94.9476 27.2795C94.074 26.7141 93.0364 26.4573 92 26.55C90.9644 26.6423 89.9894 27.0784 89.2302 27.7887C88.4709 28.499 87.971 29.4428 87.81 30.47C87.4322 32.9512 87.2782 35.4613 87.35 37.97C79.01 36.24 71.63 34.64 66.09 34.04C62.28 17.38 72.63 0.89002 72.63 0.89002C15.47 17.76 0.0100098 49.31 0.0100098 49.31C60.16 27.38 42.84 79.89 34.29 88.75C62.08 61 66.19 96.32 66.19 96.32C68.81 83.39 75.91 78.77 81.38 77.15C81.38 83.95 81.38 90.68 81.38 97.49C86.52 95.26 136.68 94.89 142.66 97.49C142.66 89.49 142.74 81.65 142.66 73.67C149.73 77.13 153.31 85.28 153.31 85.28C154.77 42.28 192.83 64.73 192.83 64.73C171.46 20.74 218.06 33.9 218.06 33.9Z" fill="black"/>
<path d="M112.37 41.19C116.568 41.3593 120.721 42.1305 124.7 43.48C127.138 39.4789 129.092 35.2022 130.52 30.74C130.592 30.4706 130.759 30.2363 130.99 30.08C131.223 29.9261 131.504 29.8622 131.78 29.9C132.06 29.8956 132.332 29.9956 132.543 30.1804C132.753 30.3651 132.888 30.6216 132.92 30.9C133.433 34.5925 133.487 38.3343 133.08 42.04C135.28 41.7 135.83 41.62 138.74 40.97C157.27 36.89 163.34 36.73 165 37.43C161.13 47.67 153.65 55.84 144.39 59.88C142.766 60.4952 141.387 61.6219 140.46 63.09C139.534 64.5556 139.11 66.2822 139.25 68.01C139.35 76.26 139.25 84.33 139.25 92.44C121.696 85.9201 102.384 85.9201 84.8301 92.44C84.8301 84.33 84.8301 76.26 84.8301 68.01C84.9704 66.2822 84.5458 64.5556 83.6201 63.09C82.6931 61.6219 81.3137 60.4952 79.6901 59.88C70.4601 55.88 62.9801 47.67 59.0801 37.43C60.7401 36.73 66.8101 36.89 85.3401 40.97C88.2501 41.62 88.7701 41.7 91.0001 42.04C90.5982 38.334 90.6519 34.5928 91.16 30.9C91.1832 30.6141 91.3115 30.3469 91.5201 30.15C91.7353 29.959 92.0123 29.8524 92.3 29.85C92.5765 29.8121 92.8573 29.8761 93.0901 30.03C93.321 30.1863 93.4878 30.4206 93.5601 30.69C94.9885 35.1522 96.9422 39.4289 99.3801 43.43C103.359 42.0805 107.512 41.3093 111.71 41.14L112.37 41.19Z" fill="#FF784A"/>
<path d="M68.97 42.85L83.29 46.17C83.4416 46.208 83.5778 46.2918 83.68 46.41C83.7874 46.5246 83.8511 46.6733 83.86 46.83C83.8776 46.987 83.8425 47.1453 83.76 47.28C83.6716 47.4104 83.5463 47.5114 83.4 47.57C80.55 48.72 75.4 50.43 72.95 48.57C69.41 45.94 68.31 44.47 68.09 43.67C68.06 43.5519 68.06 43.4281 68.09 43.31C68.1236 43.1912 68.1893 43.0839 68.28 43C68.3678 42.9188 68.4743 42.8604 68.59 42.83C68.7075 42.795 68.8326 42.795 68.95 42.83L68.97 42.85Z" fill="black"/>
<path d="M155.2 42.85L140.88 46.17C140.728 46.208 140.592 46.2918 140.49 46.41C140.386 46.5281 140.323 46.6766 140.311 46.8334C140.298 46.9902 140.336 47.1468 140.42 47.28C140.502 47.412 140.625 47.5137 140.77 47.57C143.62 48.72 148.77 50.43 151.23 48.57C154.76 45.94 155.86 44.47 156.08 43.67C156.115 43.5526 156.115 43.4275 156.08 43.31C156.046 43.1935 155.981 43.088 155.894 43.0038C155.806 42.9196 155.698 42.8598 155.58 42.83C155.463 42.795 155.337 42.795 155.22 42.83L155.2 42.85Z" fill="black"/>
<path d="M145.83 99.77C139.96 93.43 132.26 90.61 124.07 88.94C120.233 88.0931 116.308 87.7071 112.38 87.79H111.82C107.888 87.707 103.96 88.0931 100.12 88.94C91.9199 90.56 84.2299 93.43 78.3599 99.77C73.6099 104.93 72.2699 111.35 75.2799 116.77C77.2242 120.507 80.1178 123.666 83.6699 125.93C90.339 129.793 97.7593 132.18 105.43 132.93C107.547 133.18 109.678 133.291 111.81 133.26H112.37C114.502 133.29 116.633 133.18 118.75 132.93C126.42 132.176 133.839 129.789 140.51 125.93C144.061 123.668 146.952 120.508 148.89 116.77C151.92 111.35 150.58 104.93 145.83 99.77Z" fill="#FF784A"/>
<path d="M147.21 98.5C140.21 90.94 130.85 88.37 124.43 87.05H124.28C120.924 86.3043 117.498 85.9188 114.06 85.9H110.15C106.709 85.9174 103.279 86.3029 99.9199 87.05H99.77C93.34 88.32 83.98 90.9 76.99 98.5C71.58 104.34 70.31 111.68 73.64 117.64C75.7297 121.682 78.8566 125.095 82.7 127.53C89.06 131.36 96.2199 133.65 105.22 134.74C107.231 134.98 109.255 135.1 111.28 135.1H112.94C114.945 135.098 116.949 134.978 118.94 134.74C127.94 133.65 135.1 131.36 141.46 127.53C145.306 125.098 148.433 121.684 150.52 117.64C153.88 111.65 152.61 104.34 147.21 98.5ZM147.27 115.81C145.501 119.278 142.84 122.212 139.56 124.31C133.67 127.85 126.96 130.04 118.56 131.01C116.52 131.256 114.465 131.363 112.41 131.33H111.85C109.795 131.364 107.74 131.257 105.7 131.01C97.23 130.01 90.54 127.85 84.7 124.31C81.4177 122.212 78.7531 119.278 76.9799 115.81C74.4199 111.22 75.48 105.73 79.81 101.05C84.63 95.83 91.03 92.66 100.56 90.75H100.7C104.427 89.9155 108.241 89.5294 112.06 89.6H112.21C116.042 89.5268 119.869 89.9129 123.61 90.75H123.74C133.27 92.63 139.67 95.75 144.5 101.05C148.82 105.73 149.88 111.25 147.32 115.81H147.27Z" fill="black"/>
<path d="M92.19 76.35C93.61 74.25 94.9433 72.0833 96.19 69.85C96.2628 69.7318 96.3073 69.5983 96.32 69.46C96.3296 69.3239 96.3091 69.1873 96.26 69.06C94.5078 64.9939 93.5603 60.6267 93.47 56.2C93.4083 54.9465 93.4317 53.6903 93.54 52.44C93.5397 52.2852 93.5811 52.1332 93.66 52C93.7505 51.8705 93.8705 51.7642 94.01 51.69C94.14 51.69 94.29 51.69 94.34 51.79C94.3878 51.9569 94.4212 52.1275 94.44 52.3C94.6215 53.784 94.9566 55.2452 95.44 56.66C96.35 59.24 97.31 61.82 98.44 64.33C98.57 64.61 98.61 64.95 98.9 65.13C99.1 65.13 99.14 64.91 99.22 64.77C100.84 62.1033 102.403 59.3933 103.91 56.64C104.34 55.85 104.82 55.08 105.31 54.3C105.44 54.061 105.656 53.881 105.915 53.7973C106.174 53.7135 106.455 53.7324 106.7 53.85C106.767 53.8723 106.824 53.9185 106.86 53.98C106.884 54.0411 106.884 54.1089 106.86 54.17C106.842 54.4152 106.809 54.659 106.76 54.9C106.639 55.511 106.485 56.1152 106.3 56.71C105.69 58.53 105.19 60.37 104.52 62.17C103.888 63.8936 103.122 65.5653 102.23 67.17C101.87 67.81 101.57 68.48 101.23 69.17C101.15 69.3026 101.108 69.455 101.11 69.61C101.111 69.7647 101.152 69.9164 101.23 70.05C102.68 72.7085 104.528 75.1297 106.71 77.23C107.38 77.85 108.11 78.44 108.71 79.04C108.822 79.1165 108.909 79.2243 108.96 79.35C109.016 79.4789 109.034 79.6214 109.01 79.76C109.016 79.7931 109.016 79.8269 109.01 79.86C108.992 79.8911 108.968 79.9182 108.94 79.94C108.915 79.9646 108.884 79.9819 108.85 79.99H108.75C108.649 79.9718 108.551 79.9381 108.46 79.89C107.89 79.63 107.32 79.39 106.76 79.09C104.09 77.6634 101.622 75.8878 99.42 73.81C99.29 73.69 99.17 73.56 99.05 73.43C98.93 73.3 98.87 73.15 98.68 73.12C98.49 73.09 98.34 73.46 98.17 73.64C96.8968 75.1584 95.4617 76.5332 93.89 77.74C93.2685 78.2488 92.5606 78.6417 91.8 78.9C91.5941 78.999 91.3685 79.0502 91.14 79.05C90.9146 79.0516 90.6919 79.0002 90.49 78.9L92.19 76.35Z" fill="black"/>
<path d="M126.18 60.58C127.107 58.58 128.04 56.6034 128.98 54.65C129.16 54.27 129.37 53.91 129.56 53.55C129.63 53.4103 129.737 53.2927 129.87 53.21C130.004 53.1321 130.155 53.0907 130.31 53.09C131 53.09 131.15 53.09 131.31 53.85C131.41 54.3988 131.41 54.9612 131.31 55.51C131.219 56.2676 131.082 57.019 130.9 57.76C130.26 60.19 129.51 62.59 128.9 65C128.639 66.0806 128.239 67.1226 127.71 68.1C127.619 68.2314 127.58 68.3916 127.6 68.55C127.618 68.7047 127.693 68.8472 127.81 68.95C128.551 69.7814 129.35 70.56 130.2 71.28C131.449 72.3327 132.762 73.3079 134.13 74.2L135.33 75.02C135.466 75.1062 135.569 75.237 135.62 75.39C135.674 75.5386 135.674 75.7015 135.62 75.85C135.615 75.9203 135.593 75.9885 135.558 76.0492C135.522 76.1099 135.472 76.1616 135.413 76.2003C135.355 76.2389 135.287 76.2635 135.218 76.2722C135.148 76.2808 135.077 76.2732 135.01 76.25C134.35 76.14 133.71 76.04 133.07 75.89C131.067 75.4461 129.131 74.7435 127.31 73.8C126.663 73.4558 126.039 73.0718 125.44 72.65C125.24 72.53 125.09 72.32 124.82 72.3C124.602 72.4095 124.424 72.5843 124.31 72.8C122.422 75.046 119.987 76.7679 117.24 77.8C116.177 78.2204 115.088 78.5711 113.98 78.85C113.609 78.94 113.221 78.94 112.85 78.85L112.76 78.79C112.755 78.7636 112.755 78.7365 112.76 78.71C112.755 78.6802 112.755 78.6498 112.76 78.62C112.754 78.5937 112.754 78.5664 112.76 78.54C113.02 78.3096 113.293 78.0959 113.58 77.9C114.719 77.0493 115.729 76.0389 116.58 74.9C118.09 73.07 119.37 71.13 120.77 69.19L121.12 68.66C121.135 68.5976 121.135 68.5325 121.12 68.47C121.135 68.4042 121.135 68.3359 121.12 68.27C120.99 68.02 120.84 67.78 120.71 67.55C118.73 64.0705 117.459 60.2334 116.97 56.26V55.01C116.928 54.7566 116.959 54.4964 117.06 54.26C117.161 54.036 117.32 53.8427 117.52 53.7C118.01 53.31 118.19 53.31 118.44 53.9C119.84 56.96 121.52 59.8 123.14 62.72C123.391 63.2374 123.729 63.7076 124.14 64.11C124.9 62.9856 125.569 61.8017 126.14 60.57L126.18 60.58Z" fill="black"/>
<path d="M136.16 100.49C136.16 100.49 137.73 106.59 129.81 110.39L130.91 113.39C129.477 114.398 127.805 115.012 126.06 115.17L124.94 112.05C123.123 112.488 121.279 112.802 119.42 112.99L119.57 116.28C117.905 116.812 116.129 116.898 114.42 116.53V116.53L114.27 113.32C113.57 113.32 112.85 113.32 112.12 113.32C111.39 113.32 110.66 113.32 109.97 113.32L109.81 116.53C108.101 116.898 106.325 116.812 104.66 116.28L104.82 112.99C102.961 112.803 101.117 112.489 99.3001 112.05L98.1701 115.17C96.4289 115.01 94.7601 114.396 93.3301 113.39V113.39L94.4301 110.39C86.5101 106.59 88.0801 100.49 88.0801 100.49C88.0801 100.49 80.3801 117.31 97.0801 123.42L97.9901 120.01C99.7449 120.024 101.467 120.489 102.99 121.36V121.36L102.08 124.77C108.76 125.89 115.58 125.89 122.26 124.77L121.35 121.36C122.874 120.489 124.595 120.024 126.35 120.01L127.26 123.42C143.86 117.31 136.16 100.49 136.16 100.49Z" fill="black"/>
</g>
<defs>
<clipPath id="clip0_2998:155">
<rect width="218.09" height="135.11" fill="white"/>
</clipPath>
</defs>
</svg>
