<svg xmlns="http://www.w3.org/2000/svg" fill="none" viewBox="0 0 82 104">
  <g fill="#FF4F00" clip-path="url(#a)">
    <path d="M75.94 65.42s0-2.32-1.47-1.78c-1.47.54-.58 2.13-.58 2.13s-1.67 3.48 2.16 4.25c.02 0 2.34-1.85-.11-4.6Z"/>
    <path d="M73.76 65.95a20.34 20.34 0 0 0-2.95-2 2.3 2.3 0 0 0-1.59.29l-.22-.4a2.83 2.83 0 0 1 2-.33 22.16 22.16 0 0 1 3.08 2.09l-.32.35ZM69.49 67.92l-.44-.13c0-.09.64-2.21 1.91-2.25a8 8 0 0 1 2.89.79l-.2.42a7.437 7.437 0 0 0-2.67-.75c-.79.03-1.34 1.4-1.49 1.92Z"/>
    <path d="m69.94 70.83-.44-.15c.13-.38 1.27-3.72 2.78-3.67 1.28 0 1.59.32 1.61.55l-.45.06a.14.14 0 0 0 0 .07s-.18-.19-1.19-.22-1.86 2.05-2.31 3.36Z"/>
    <path d="M71.24 72.02c0-.11-.27-2.64 1.45-3.11l1.54-.42.12.44-1.54.43c-1.34.36-1.11 2.59-1.11 2.61l-.46.05ZM76.26 65.72h-.46c.44-3.86 2.77-4.69 2.87-4.72l.15.44c-.09-.02-2.16.73-2.56 4.28Z"/>
    <path d="m76.28 66.69-.41-.22a15.466 15.466 0 0 1 1.82-2.8c.83-.83 2.95.78 3.36 1.11l-.29.36c-.9-.72-2.34-1.54-2.75-1.14a15.298 15.298 0 0 0-1.73 2.69Z"/>
    <path d="M80.99 67.45c-.78-.66-2.26-1.61-2.89-1.32a7.928 7.928 0 0 0-1.83 1.31l-.33-.35a8.001 8.001 0 0 1 2-1.4c1.1-.51 3.15 1.2 3.38 1.39l-.33.37Z"/>
    <path d="M80.63 68.92c-.08-.08-2-1.84-4-.67l-.23-.4c2.24-1.35 4.5.71 4.53.73l-.3.34ZM74.22 41.135a2.325 2.325 0 0 1-.22.063V67h.5V41l-.28.135Z"/>
  </g>
  <path fill="#000" d="M42.558 34.08c2.309.148 4.595.544 6.82 1.18a44.758 44.758 0 0 0 2.978-7.007 3.34 3.34 0 0 1 6.459.574 29.3 29.3 0 0 1 .328 5.375c13.237-2.749 23.092-5.063 22.74-.05l-.05.181c-2.962 8.15-8.87 14.665-16.207 17.882a3.34 3.34 0 0 0-2.224 3.553c.09 7.115 0 14.041 0 21.082a55.104 55.104 0 0 0-43.912 0c0-7.04-.058-13.95 0-21.082a3.34 3.34 0 0 0-2.224-3.553C9.929 48.998 4.02 42.482 1.058 34.333l-.049-.18c-.353-5.014 9.503-2.7 22.74.05a29.3 29.3 0 0 1 .328-5.376 3.34 3.34 0 0 1 6.458-.574 44.767 44.767 0 0 0 2.98 7.008 32.299 32.299 0 0 1 6.819-1.182h2.224Z"/>
  <path fill="#FF4F00" d="M41.68 36.508c3.009.121 5.985.674 8.838 1.642a42.44 42.44 0 0 0 4.168-9.134.82.82 0 0 1 .903-.6.82.82 0 0 1 .82.756c.365 2.644.403 5.323.116 7.976 1.575-.238 1.97-.295 4.053-.763 13.278-2.921 17.628-3.036 18.818-2.535-2.774 7.336-8.133 13.187-14.772 16.084a5.745 5.745 0 0 0-3.684 5.826c.074 5.909 0 11.694 0 17.505a55.975 55.975 0 0 0-38.989 0c0-5.81-.04-11.596 0-17.505a5.744 5.744 0 0 0-3.684-5.826C11.652 47.037 6.294 41.186 3.495 33.85c1.19-.501 5.54-.386 18.817 2.535 2.085.468 2.462.525 4.054.763a32.678 32.678 0 0 1 .115-7.976.82.82 0 0 1 .82-.755.82.82 0 0 1 .904.599 42.44 42.44 0 0 0 4.168 9.134 31.421 31.421 0 0 1 8.839-1.642h.467Z"/>
  <path fill="#000" d="m10.586 37.698 10.257 2.38a.525.525 0 0 1 .082 1.001c-2.043.82-5.744 2.052-7.492.739-2.536-1.888-3.323-2.938-3.48-3.513a.517.517 0 0 1 .633-.607ZM72.371 37.698l-10.258 2.38a.525.525 0 0 0-.082 1.001c2.044.82 5.745 2.052 7.493.739 2.535-1.888 3.323-2.938 3.48-3.513a.517.517 0 0 0-.633-.607Z"/>
  <path fill="#FF4F00" d="M65.659 78.484c-4.21-4.547-9.725-6.566-15.592-7.764a35.372 35.372 0 0 0-8.379-.82h-.402a35.37 35.37 0 0 0-8.379.82c-5.875 1.166-11.39 3.217-15.592 7.764-3.405 3.692-4.366 8.296-2.207 12.145a17.175 17.175 0 0 0 6.007 6.565 38.672 38.672 0 0 0 15.592 4.981c1.517.181 3.044.26 4.57.238h.403a34.393 34.393 0 0 0 4.57-.238 38.672 38.672 0 0 0 15.593-4.981 17.176 17.176 0 0 0 6.007-6.565c2.175-3.849 1.214-8.453-2.191-12.145Z"/>
  <path fill="#000" d="M66.643 77.573c-5.014-5.417-11.718-7.263-16.322-8.207h-.107a34.598 34.598 0 0 0-7.336-.82h-2.799a34.597 34.597 0 0 0-7.336.82h-.107c-4.604.911-11.308 2.758-16.322 8.207-3.874 4.185-4.784 9.445-2.396 13.712a18.342 18.342 0 0 0 6.49 7.09c4.555 2.741 9.684 4.383 16.134 5.162 1.44.176 2.89.264 4.341.263h1.19c1.452.001 2.901-.087 4.341-.263 6.45-.779 11.58-2.421 16.134-5.162a18.342 18.342 0 0 0 6.491-7.09c2.388-4.292 1.477-9.527-2.396-13.712Zm.05 12.4a15.772 15.772 0 0 1-5.532 6.097c-4.218 2.535-9.027 4.103-15.075 4.8a33.109 33.109 0 0 1-4.407.23h-.402a33.109 33.109 0 0 1-4.406-.23c-6.065-.738-10.857-2.265-15.075-4.8a15.77 15.77 0 0 1-5.531-6.098c-1.83-3.282-1.075-7.221 2.026-10.57 3.455-3.742 8.043-6.015 14.87-7.385h.099a34.35 34.35 0 0 1 8.165-.82h.107a34.35 34.35 0 0 1 8.165.82h.099c6.827 1.346 11.415 3.619 14.87 7.386 3.101 3.348 3.856 7.303 2.026 10.57ZM27.22 61.7a53.983 53.983 0 0 0 2.83-4.66.59.59 0 0 0 .05-.56 24.6 24.6 0 0 1-2-9.22 20.143 20.143 0 0 1 .05-2.69.6.6 0 0 1 .34-.54c.09 0 .2 0 .24.07.033.121.056.245.07.37a15.37 15.37 0 0 0 .73 3.12c.65 1.85 1.34 3.7 2.12 5.5.09.2.12.44.33.57.14 0 .17-.16.23-.26 1.16-1.92 2.28-3.86 3.36-5.82.31-.57.65-1.12 1-1.68a.76.76 0 0 1 1-.32.22.22 0 0 1 .15.23 4.333 4.333 0 0 1-.07.52c-.1.44-.19.88-.33 1.3-.44 1.3-.8 2.62-1.28 3.91a24.744 24.744 0 0 1-1.64 3.59c-.26.46-.47.94-.71 1.41a.62.62 0 0 0 0 .63 21.192 21.192 0 0 0 3.93 5.15c.48.44 1 .86 1.45 1.29a.53.53 0 0 1 .202.59.181.181 0 0 1-.182.1.58.58 0 0 1-.21-.07c-.41-.19-.82-.36-1.22-.57a24.512 24.512 0 0 1-5.26-3.79 3.381 3.381 0 0 1-.26-.27c-.08-.08-.13-.2-.27-.22-.14-.02-.24.24-.36.37a19.399 19.399 0 0 1-3.07 2.94 4.8 4.8 0 0 1-1.5.83 1.11 1.11 0 0 1-.94 0l1.22-1.82ZM51.58 50.4c.667-1.42 1.333-2.837 2-4.25.13-.27.28-.53.42-.79a.62.62 0 0 1 .54-.33c.49 0 .6 0 .72.55.075.393.075.797 0 1.19-.067.542-.163 1.08-.29 1.61-.46 1.74-1 3.46-1.43 5.19a9.177 9.177 0 0 1-.85 2.22.46.46 0 0 0 .07.61 17.998 17.998 0 0 0 1.71 1.67c.897.753 1.839 1.45 2.82 2.09l.86.59a.46.46 0 0 1 .18.59c-.07.24-.18.33-.44.29-.47-.08-.93-.15-1.39-.26a16.888 16.888 0 0 1-4.13-1.5 12.312 12.312 0 0 1-1.34-.82c-.14-.09-.25-.24-.44-.25a.86.86 0 0 0-.37.36 12.23 12.23 0 0 1-5.06 3.6c-.763.3-1.545.55-2.34.75a1.71 1.71 0 0 1-.81 0 .17.17 0 0 1-.1-.1.13.13 0 0 1 0-.12c.188-.164.385-.318.59-.46a10.48 10.48 0 0 0 2.15-2.16c1.08-1.31 2-2.7 3-4.09l.25-.38a.281.281 0 0 0 0-.28c-.09-.18-.2-.35-.29-.52a21.601 21.601 0 0 1-2.63-8.12v-.89a1.001 1.001 0 0 1 .42-.91c.35-.28.48-.28.66.14 1 2.19 2.21 4.23 3.37 6.32.173.37.406.707.69 1a18.99 18.99 0 0 0 1.46-2.54Z"/>
  <g clip-path="url(#b)">
    <path fill="#000" d="M58.73 79s1.125 4.366-4.55 7.093l.787 2.173a7.273 7.273 0 0 1-3.474 1.274l-.805-2.235c-1.303.31-2.625.534-3.958.67l.113 2.361a7.254 7.254 0 0 1-3.69.18l-.113-2.305a61.334 61.334 0 0 1-3.079 0l-.112 2.305a7.253 7.253 0 0 1-3.69-.18l.112-2.361a30.315 30.315 0 0 1-3.957-.67l-.806 2.235a7.273 7.273 0 0 1-3.472-1.274l.787-2.173C23.15 83.37 24.273 79 24.273 79s-5.511 12.05 6.432 16.431l.653-2.444a7.251 7.251 0 0 1 3.567.969l-.65 2.44c2.038.386 4.43.604 7.227.604 2.798 0 5.19-.218 7.23-.605l-.653-2.44a7.255 7.255 0 0 1 3.568-.968l.654 2.444C64.244 91.051 58.73 79 58.73 79Z"/>
  </g>
  <g fill="#FF4F00" clip-path="url(#c)">
    <path d="M12.06 58.25s2.16.89 2.27.88c.11-.01-.56-1-.81-1.55a5 5 0 0 0 2.71-.11 7.62 7.62 0 0 1-3.72-2.46.07.07 0 0 0-.06 0s-1.88 2.25-2.23 1.88c-.35-.37-.24-2.62-.24-2.66 0-.04-1 1-1.16 1.08-.16.08 0-1.35 0-1.35s-1.3 1.9-1.75 1.46c-.45-.44 0-2.34.37-3.4-1 .38-6 .24-6 .22 0-.02 2.22.43 2.86 1.17.64.74-.88 2.23-.88 2.23s1.49-.1 1.79.15c.3.25-.22.65-.62 1.59a2.18 2.18 0 0 1 1.93-.2c.23.25.09 1-.37 3.16 2.09-2.39 2.47-2.1 2.86-1.84.39.26.63 1.64.7 1.64.07 0 1.05-1.41 1.05-1.41.48.525 1.005 1.007 1.57 1.44a9.667 9.667 0 0 0-.27-1.92ZM0 63.97a3.998 3.998 0 0 1 1.45.74c.32.39-.49 1-.49 1 .315.01.627.074.92.19.15.14-.12.29-.34.71a1.2 1.2 0 0 1 1 0c.11.13 0 .46-.25 1.48 1.12-1 1.31-.85 1.51-.69.2.16.3.82.34.82.197-.19.384-.39.56-.6.243.28.507.54.79.78a4 4 0 0 0-.12-.92s1.1.56 1.16.57a6.456 6.456 0 0 0-.39-.79c.45.155.93.197 1.4.12a5.804 5.804 0 0 1-1.1-.63 4.59 4.59 0 0 1-.78-.78s-1 1-1.19.76c-.19-.24-.08-1.27-.08-1.29 0-.02-.52.4-.61.44-.09.04 0-.64 0-.64s-.7.82-.93.58c-.23-.24 0-1.11.25-1.59a18.298 18.298 0 0 1-3.1-.26ZM18.63 70.52a4.999 4.999 0 0 1-.9-.89 4.677 4.677 0 0 1-.56-.95s-1.23.66-1.34.43c-.11-.23.24-1.25.25-1.26.01-.01-.61.25-.71.27-.1.02.2-.62.2-.62s-.89.62-1.05.32c-.16-.3.31-1.06.65-1.47a19.35 19.35 0 0 1-2.93-1.07c.476.277.892.648 1.22 1.09.21.46-.73.84-.73.84.301.092.585.234.84.42.11.18-.2.25-.52.6a1.23 1.23 0 0 1 1 .29c.08.16-.09.46-.62 1.37 1.35-.69 1.49-.48 1.64-.28.15.2.08.87.11.88.245-.13.482-.273.71-.43.158.349.346.683.56 1 .066-.306.102-.617.11-.93 0 0 .92.83 1 .85a5.173 5.173 0 0 0-.18-.86c.38.227.808.364 1.25.4Z"/>
  </g>
  <defs>
    <clipPath id="a">
      <path fill="#fff" d="M0 0h12.29v79.18H0z" transform="translate(69 -6)"/>
    </clipPath>
    <clipPath id="b">
      <path fill="#fff" d="M0 0h37v18H0z" transform="translate(23 79)"/>
    </clipPath>
    <clipPath id="c">
      <path fill="#fff" d="M0 0h18.63v18.99H0z" transform="translate(0 52)"/>
    </clipPath>
  </defs>
</svg>