<svg width="60" height="60" viewBox="0 0 60 60" fill="none" xmlns="http://www.w3.org/2000/svg">
<path d="M18.2453 34.1054C19.9634 34.1054 21.5316 33.5327 22.7998 32.5509L12.3544 22.1054C11.3725 23.36 10.7998 24.9418 10.7998 26.66C10.8134 30.7645 14.1407 34.1054 18.2453 34.1054ZM49.3089 26.6463C49.3089 24.9282 48.7362 23.36 47.7544 22.0918L37.3089 32.5373C38.5634 33.5191 40.1453 34.0918 41.8634 34.0918C45.968 34.1054 49.3089 30.7645 49.3089 26.6463Z" fill="#001428"/>
<path d="M55.6735 15L50.8329 19.7821C52.4322 21.6724 53.4031 24.0987 53.4031 26.7649C53.4031 32.7743 48.4484 37.6693 42.3655 37.6693C39.6954 37.6693 37.2251 36.71 35.2975 35.1301L30 40.3636L24.7025 35.1301C22.7891 36.71 20.3332 37.6693 17.6345 37.6693C11.5516 37.6693 6.59686 32.7743 6.59686 26.7649C6.59686 24.127 7.56782 21.6865 9.16706 19.7821L6.68253 17.3276L4.32651 15C1.58496 19.4859 0 24.7335 0 30.3621C0 46.7257 13.4222 60 30 60C46.5778 60 60 46.7257 60 30.3621C60 24.7335 58.415 19.4859 55.6735 15Z" fill="#001428"/>
<path d="M51.9277 9.40827C46.5426 3.61301 38.9301 0 30.5 0C22.0699 0 14.4574 3.61301 9.07229 9.40827C8.33923 10.2031 7.64847 11.0269 7 11.894L30.5 36L54 11.894C53.3656 11.0269 52.6608 10.2031 51.9277 9.40827V9.40827ZM30.5 3.97431C37.4358 3.97431 43.8641 6.70574 48.7136 11.7061L30.5 30.3782L12.2864 11.7061C17.1359 6.70574 23.5642 3.97431 30.5 3.97431V3.97431Z" fill="#001428"/>
</svg>
