<svg width="20" height="18" viewBox="0 0 20 18" fill="none" xmlns="http://www.w3.org/2000/svg">
<path d="M20 2.79705C19.2511 3.12903 18.4565 3.34678 17.643 3.44305C18.5005 2.93085 19.1422 2.12391 19.448 1.17305C18.6424 1.65111 17.7611 1.98796 16.842 2.16905C16.4582 1.75932 15.9944 1.43284 15.4791 1.2099C14.9639 0.986956 14.4084 0.8723 13.847 0.873051C11.197 0.873051 9.251 3.34505 9.849 5.91105C8.21756 5.82942 6.62153 5.40555 5.16456 4.66699C3.70758 3.92842 2.42224 2.89167 1.392 1.62405C0.867744 2.52752 0.707256 3.59675 0.943166 4.61432C1.17908 5.6319 1.79368 6.52143 2.662 7.10205C2.0107 7.08198 1.37365 6.90643 0.804 6.59005C0.76 8.49005 2.122 10.2701 4.095 10.6641C3.49072 10.8282 2.85694 10.8521 2.242 10.7341C2.50384 11.5495 3.01414 12.2627 3.70145 12.7737C4.38876 13.2848 5.21867 13.5681 6.075 13.5841C4.35502 14.9328 2.17011 15.5438 0 15.2831C1.87628 16.4884 4.05989 17.1282 6.29 17.126C13.908 17.126 18.212 10.6921 17.953 4.92105C18.7559 4.34009 19.4491 3.62088 20 2.79705V2.79705Z" fill="#EF7F56"/>
</svg>
